<svg version="1.1" xmlns="http://www.w3.org/2000/svg" viewBox="0 0 810.6640625 339.640625">
  <!-- svg-source:excalidraw -->
  <defs>
    <style>
      @font-face {
        font-family: "Virgil";
        src: url("https://excalidraw.com/FG_Virgil.woff2");
      }
      @font-face {
        font-family: "Cascadia";
        src: url("https://excalidraw.com/Cascadia.woff2");
      }
    </style>
  </defs>
  <g transform="translate(10 71.14453125) rotate(0 162.3203125 41.8515625)"><path d="M0 0 L324.640625 0 L324.640625 83.70312500000001 L0 83.70312500000001" style="stroke: none; stroke-width: 0; fill: rgb(121, 80, 242);"></path><path d="M0 0 C111.63227691603242 0, 223.26455383206485 0, 324.640625 0 M0 0 C127.10637702663081 0, 254.21275405326162 0, 324.640625 0 M324.640625 0 C324.640625 18.342575238895375, 324.640625 36.68515047779075, 324.640625 83.70312500000001 M324.640625 0 C324.640625 27.0282973913767, 324.640625 54.0565947827534, 324.640625 83.70312500000001 M324.640625 83.70312500000001 C232.5299331867194 83.70312500000001, 140.41924137343884 83.70312500000001, 0 83.70312500000001 M324.640625 83.70312500000001 C195.16297195050282 83.70312500000001, 65.68531890100564 83.70312500000001, 0 83.70312500000001 M0 83.70312500000001 C0 58.045875887695004, 0 32.38862677539, 0 0 M0 83.70312500000001 C0 61.940571951650796, 0 40.17801890330157, 0 0" style="stroke: rgb(0, 0, 0); stroke-width: 1; fill: none;"></path></g><g transform="translate(64.3359375 157.3046875) rotate(0 162.3203125 41.8515625)"><path d="M0 0 L324.640625 0 L324.640625 83.70312500000001 L0 83.70312500000001" style="stroke: none; stroke-width: 0; fill: rgb(21, 170, 191);"></path><path d="M0 0 C81.16845247977763 0, 162.33690495955526 0, 324.640625 0 M0 0 C102.14046245553182 0, 204.28092491106364 0, 324.640625 0 M324.640625 0 C324.640625 18.116596175049203, 324.640625 36.233192350098406, 324.640625 83.70312500000001 M324.640625 0 C324.640625 31.31817773955991, 324.640625 62.63635547911982, 324.640625 83.70312500000001 M324.640625 83.70312500000001 C234.7652903134993 83.70312500000001, 144.88995562699856 83.70312500000001, 0 83.70312500000001 M324.640625 83.70312500000001 C230.9483417995216 83.70312500000001, 137.25605859904317 83.70312500000001, 0 83.70312500000001 M0 83.70312500000001 C0 63.45304211632466, 0 43.202959232649306, 0 0 M0 83.70312500000001 C0 53.31041840200197, 0 22.917711804003922, 0 0" style="stroke: rgb(0, 0, 0); stroke-width: 1; fill: none;"></path></g><g transform="translate(124.3125 244.6484375) rotate(0 162.3203125 41.8515625)"><path d="M0 0 L324.640625 0 L324.640625 83.70312500000001 L0 83.70312500000001" style="stroke: none; stroke-width: 0; fill: rgb(230, 73, 128);"></path><path d="M0 0 C95.74648866281495 0, 191.4929773256299 0, 324.640625 0 M0 0 C72.70169326913893 0, 145.40338653827786 0, 324.640625 0 M324.640625 0 C324.640625 23.64890293891659, 324.640625 47.29780587783318, 324.640625 83.70312500000001 M324.640625 0 C324.640625 30.30719145114418, 324.640625 60.61438290228836, 324.640625 83.70312500000001 M324.640625 83.70312500000001 C245.13684109635068 83.70312500000001, 165.6330571927014 83.70312500000001, 0 83.70312500000001 M324.640625 83.70312500000001 C233.24628896648647 83.70312500000001, 141.85195293297292 83.70312500000001, 0 83.70312500000001 M0 83.70312500000001 C0 64.83264756646824, 0 45.96217013293645, 0 0 M0 83.70312500000001 C0 52.74011301559513, 0 21.77710103119025, 0 0" style="stroke: rgb(0, 0, 0); stroke-width: 1; fill: none;"></path></g><g transform="translate(58.41796875 93.46484375) rotate(0 108 20.5)"><text x="0" y="33" font-family="Helvetica" font-size="36px" fill="#ffffff" text-anchor="start">Division Lead</text></g><g transform="translate(140.953125 183.48828125) rotate(0 89.5 20.5)"><text x="0" y="33" font-family="Helvetica" font-size="36px" fill="#ffffff" text-anchor="start">Track Lead</text></g><g transform="translate(192.02734375 264.5390625) rotate(0 78 20.5)"><text x="0" y="33" font-family="Helvetica" font-size="36px" fill="#ffffff" text-anchor="start">GIG Lead</text></g><g transform="translate(548.59765625 50.25390625) rotate(0 0.28125 3.845703125)"><path d="M0 0 L0.5625 0 L0.5625 7.69140625 L0 7.69140625" style="stroke: none; stroke-width: 0; fill: rgb(18, 184, 134);"></path><path d="M0 0 C0.12780077343340965 0, 0.2556015468668193 0, 0.5625 0 M0 0 C0.18920078279916197 0, 0.37840156559832394 0, 0.5625 0 M0.5625 0 C0.5625 1.7576354541917683, 0.5625 3.5152709083835365, 0.5625 7.69140625 M0.5625 0 C0.5625 3.0254191607367833, 0.5625 6.050838321473567, 0.5625 7.69140625 M0.5625 7.69140625 C0.4103307809913531 7.69140625, 0.2581615619827062 7.69140625, 0 7.69140625 M0.5625 7.69140625 C0.41672701088245956 7.69140625, 0.2709540217649191 7.69140625, 0 7.69140625 M0 7.69140625 C0 5.838956787054485, 0 3.9865073241089704, 0 0 M0 7.69140625 C0 4.9555948573033675, 0 2.219783464606735, 0 0" style="stroke: rgb(255, 255, 255); stroke-width: 1; fill: none;"></path></g><g stroke-opacity="0.4" fill-opacity="0.4" transform="translate(337.328125 71.41796875) rotate(0 162.3203125 41.8515625)"><path d="M0 0 L324.640625 0 L324.640625 83.70312500000001 L0 83.70312500000001" style="stroke: none; stroke-width: 0; fill: rgb(121, 80, 242);"></path><path d="M0 0 C107.97680924963788 0, 215.95361849927576 0, 324.640625 0 M0 0 C108.94610141263693 0, 217.89220282527387 0, 324.640625 0 M324.640625 0 C324.640625 20.102018579310975, 324.640625 40.20403715862195, 324.640625 83.70312500000001 M324.640625 0 C324.640625 23.823025286634223, 324.640625 47.64605057326845, 324.640625 83.70312500000001 M324.640625 83.70312500000001 C250.9141778586374 83.70312500000001, 177.18773071727483 83.70312500000001, 0 83.70312500000001 M324.640625 83.70312500000001 C231.95043284735294 83.70312500000001, 139.26024069470586 83.70312500000001, 0 83.70312500000001 M0 83.70312500000001 C0 54.755359107413106, 0 25.8075932148262, 0 0 M0 83.70312500000001 C0 62.92811947160518, 0 42.15311394321034, 0 0" style="stroke: rgb(0, 0, 0); stroke-width: 1; fill: none;"></path></g><g stroke-opacity="0.4" fill-opacity="0.4" transform="translate(391.67578125 158.0859375) rotate(0 174.71484375 41.8515625)"><path d="M0 0 L349.4296875000001 0 L349.4296875000001 83.70312500000001 L0 83.70312500000001" style="stroke: none; stroke-width: 0; fill: rgb(21, 170, 191);"></path><path d="M0 0 C116.51907608020414 0, 233.0381521604083 0, 349.4296875000001 0 M0 0 C90.17399167921107 0, 180.34798335842214 0, 349.4296875000001 0 M349.4296875000001 0 C349.4296875000001 24.432591919851266, 349.4296875000001 48.86518383970253, 349.4296875000001 83.70312500000001 M349.4296875000001 0 C349.4296875000001 30.981736120424475, 349.4296875000001 61.96347224084895, 349.4296875000001 83.70312500000001 M349.4296875000001 83.70312500000001 C269.9184566388344 83.70312500000001, 190.40722577766869 83.70312500000001, 0 83.70312500000001 M349.4296875000001 83.70312500000001 C224.46471046991945 83.70312500000001, 99.49973343983876 83.70312500000001, 0 83.70312500000001 M0 83.70312500000001 C0 52.58322393757409, 0 21.463322875148158, 0 0 M0 83.70312500000001 C0 50.330013853096176, 0 16.956902706192338, 0 0" style="stroke: rgb(0, 0, 0); stroke-width: 1; fill: none;"></path></g><g stroke-opacity="0.4" fill-opacity="0.4" transform="translate(451.13671875 245.9375) rotate(0 174.763671875 41.8515625)"><path d="M0 0 L349.5273437500001 0 L349.5273437500001 83.70312500000001 L0 83.70312500000001" style="stroke: none; stroke-width: 0; fill: rgb(230, 73, 128);"></path><path d="M0 0 C72.09160957948627 0, 144.18321915897255 0, 349.5273437500001 0 M0 0 C82.93020499400012 0, 165.86040998800024 0, 349.5273437500001 0 M349.5273437500001 0 C349.5273437500001 25.35393814000418, 349.5273437500001 50.70787628000836, 349.5273437500001 83.70312500000001 M349.5273437500001 0 C349.5273437500001 29.131144009408313, 349.5273437500001 58.262288018816626, 349.5273437500001 83.70312500000001 M349.5273437500001 83.70312500000001 C258.79271860600136 83.70312500000001, 168.0580934620026 83.70312500000001, 0 83.70312500000001 M349.5273437500001 83.70312500000001 C230.01116998693766 83.70312500000001, 110.49499622387523 83.70312500000001, 0 83.70312500000001 M0 83.70312500000001 C0 64.72144063820016, 0 45.7397562764003, 0 0 M0 83.70312500000001 C0 63.85807780523902, 0 44.01303061047802, 0 0" style="stroke: rgb(0, 0, 0); stroke-width: 1; fill: none;"></path></g><g transform="translate(360.44140625 94.24609375) rotate(0 144 22.5)"><text x="0" y="32" font-family="Virgil" font-size="36px" fill="#000" text-anchor="start">Engineering Lead</text></g><g transform="translate(449.23046875 184.5234375) rotate(0 122 22.5)"><text x="0" y="32" font-family="Virgil" font-size="36px" fill="#000000" text-anchor="start">WebDev Lead</text></g><g stroke-opacity="0.4" fill-opacity="0.4" transform="translate(401.546875 12.11328125) rotate(0 68.5 22.5)"><text x="0" y="32" font-family="Virgil" font-size="36px" fill="#000" text-anchor="start">Example</text></g><g stroke-opacity="0.4" fill-opacity="0.4" transform="translate(81.53515625 10) rotate(0 67 22.5)"><text x="0" y="32" font-family="Virgil" font-size="36px" fill="#000" text-anchor="start">Position</text></g><g transform="translate(455.24609375 265.8359375) rotate(0 168 22.5)"><text x="0" y="32" font-family="Virgil" font-size="36px" fill="#000000" text-anchor="start">Podcast Site Lead</text></g></svg>