<svg version="1.1" xmlns="http://www.w3.org/2000/svg" viewBox="0 0 559.234375 331.1953125">
  <!-- svg-source:excalidraw -->
  <defs>
    <style>
      @font-face {
        font-family: "Virgil";
        src: url("https://excalidraw.com/FG_Virgil.woff2");
      }
      @font-face {
        font-family: "Cascadia";
        src: url("https://excalidraw.com/Cascadia.woff2");
      }
    </style>
  </defs>
  <rect x="0" y="0" width="559.234375" height="331.1953125" fill="#ffffff"></rect><g transform="translate(10 10) rotate(0 123.669921875 37.62890625)"><path d="M-1.7422006968408823 -1.7698372062295675 L247.52806184254587 1.4755452815443277 L245.38612917624414 75.50162273086607 L0.9636541362851858 75.80662512220442" style="stroke: none; stroke-width: 0; fill: rgb(121, 80, 242);"></path><path d="M-0.25761645903152514 -1.1510827732506306 C53.06780362432724 0.20704435327416604, 107.32443755306842 0.9013558125536513, 246.43078787829828 0.11945337997110683 M0.03891043604544528 -0.35780767531050817 C58.6805335737785 0.3907092491859904, 116.94523905894651 0.1407837048255285, 248.0426350135717 -0.4484096709545981 M247.5946285072714 -1.2849817518144846 C247.66294752652036 21.055495645771593, 245.03979401881085 43.648633794700444, 246.92652296461165 75.85018101893365 M247.34566261153668 0.882265237160027 C246.84455183374368 15.150263686475956, 247.74152869212114 31.00251830797206, 246.58874772768468 75.10171931702644 M247.80299997553377 76.23387518385529 C191.64152729971906 72.91559834532443, 136.8170917265162 72.21864777654147, 1.1705488118651797 76.20757036909453 M247.91463421408693 75.44019084035796 C164.01226148609328 75.909095102972, 80.89235873902469 76.69364645480586, 0.5365787023499334 75.03885222426668 M-0.5151755269616842 75.21995053254068 C0.6139069014533743 59.99850082410048, 0.11861823139035554 43.25224604669056, -0.4910928066819906 -1.5408713463693857 M-0.0733094634488225 74.53670236188918 C-1.4168721839240606 49.815531251907665, -1.164973984604221 26.36129453676257, -0.013507199473679066 -0.0060257939621806145" style="stroke: rgb(0, 0, 0); stroke-width: 1; fill: none;"></path></g><g transform="translate(66.896484375 89.88671875) rotate(0 123.669921875 37.62890625)"><path d="M1.0783587042242289 1.4530116077512503 L245.66316151060164 0.8716220017522573 L245.4054903332144 74.08403084240854 L0.3856064025312662 76.86446908675134" style="stroke: none; stroke-width: 0; fill: rgb(230, 73, 128);"></path><path d="M-1.430465151921526 -1.4531566039872674 C93.35007086633917 1.2237602893340038, 184.78692962956126 0.21242211825505056, 248.131069274683 0.4506124537899902 M-0.6485809587857864 -0.33058762682170356 C71.39471359934686 -1.2012652280013756, 141.09121680952174 -1.2833735840140081, 247.26785837287986 -0.04658117848143701 M245.4467307087034 1.5403835717588663 C247.15665907471347 18.226018853273853, 248.759509809901 36.01467575649294, 246.35763887129724 75.24611263908446 M247.46329602319747 -0.8353204848244786 C248.19413138935553 20.16202865141895, 247.58627472827422 40.015688632083766, 247.3497785301879 74.81958695035428 M246.89996961773966 74.91072075412058 C161.49058054254752 76.61013729797989, 77.74079679508674 75.19382467572478, 1.1683302238771456 74.2108069987075 M246.75730449267974 75.44042048114319 C197.34619413081472 73.08261285739134, 148.17743277475316 74.03440821857764, 0.6293719945844191 74.51713500012019 M-0.9264726880937815 73.4946855250746 C-0.1264938765615079 59.32177301661795, 0.7637141889482882 42.03520732517791, -1.274586284533143 -1.5545406993478537 M-0.27529129665344954 74.67163174133748 C0.9032837379469856 49.52155270346921, -0.35646081681108627 24.932801599866075, -0.19017559569329023 0.03382028918713331" style="stroke: rgb(0, 0, 0); stroke-width: 1; fill: none;"></path></g><g transform="translate(129.166015625 166.76953125) rotate(0 123.669921875 37.62890625)"><path d="M1.0673413630574942 1.634936148300767 L247.3426583763212 -0.13517284952104092 L246.41122451983392 73.8789531532675 L1.0804738756269217 74.81226288713515" style="stroke: none; stroke-width: 0; fill: rgb(21, 170, 191);"></path><path d="M0.5681493842558897 1.4694496035526146 C61.1507848558555 -0.15592910783549846, 120.91956409834468 1.8147266891218647, 248.60334582955875 1.581672442384891 M-0.6446077182172719 -0.6681920784395937 C66.36206459262138 2.17025274290278, 131.27847134506433 2.0893664542307855, 247.4982443149655 0.36893559932021996 M248.23927002586424 0.205762242898345 C247.44260347702286 23.437685853303265, 246.50671727278015 45.17849580098846, 248.26968514360487 75.63172320090234 M247.12301893811673 -0.3504944173619151 C246.64243382331122 27.479261122502066, 248.3508368444084 52.305199104077474, 246.7632731674239 75.61922096926719 M247.12064105034068 76.04801670702123 C184.72687468167683 74.29824529125122, 122.03412342803388 74.21713640142994, 0.3943044200796302 76.37142938258178 M248.06070025792528 74.86265177924709 C196.88489024404984 75.75904974015188, 146.51976439902492 75.22595811144699, -0.011824249223913976 75.95277032494835 M0.036089831963181496 73.35009119473398 C0.132496852714321 43.97021567745614, -0.8827999045069009 17.06394817714608, 1.8868670407682657 0.958924924954772 M-0.8467382015660405 74.35808470565826 C-0.1390440720659536 52.313190321347065, 1.4595586102861124 28.88856285140355, -0.6589318634942174 0.7000172706320882" style="stroke: rgb(0, 0, 0); stroke-width: 1; fill: none;"></path></g><g transform="translate(181.701171875 245.9375) rotate(0 183.7666015625 37.62890625)"><path d="M0.1633464451879263 0.8962556663900614 L366.6904754396528 0.6919006053358316 L366.2673232909292 73.97234206832945 L1.0567928310483694 75.70456003583968" style="stroke: none; stroke-width: 0; fill: rgb(64, 192, 87);"></path><path d="M0.12950147169646226 -0.8235653588204087 C87.8405103883244 3.184883341835656, 175.9748576224732 3.1533292443782015, 368.5646778496502 0.349183800019778 M0.22161346232916349 -0.15146918551102473 C77.57213767848273 0.1547806909118543, 156.9651442221815 -0.8441829583919351, 367.9121266853905 0.5991095278789095 M367.61130731739104 -1.832529092207551 C369.0254173338248 20.332628955240217, 367.6253778397872 39.43697119153076, 366.0812938157469 74.14354554377496 M366.97919179778546 -0.6807759730145335 C367.36153217776354 26.759486903620566, 366.67746960743006 53.54230673368584, 366.99478362780064 75.21026318985969 M367.0154415581113 75.4481279230801 C229.7261790446361 75.58925415615812, 91.4988474087549 76.64572209765494, -0.48827974817462494 75.85262515330278 M367.7615875481575 75.44359386004275 C264.7995877578375 75.29682799545841, 162.7973925967606 75.55214699951786, 0.36834613318692183 75.51371156278113 M1.2488787714391947 75.88498864136636 C-1.3395979595810785 53.5255878334261, 1.4722117590277777 32.01540539401612, 0.6630066577345133 -0.0056244973093271255 M0.2163171349093318 75.10223170835525 C0.6336892549120966 50.965578202113825, 0.5281808380209986 25.510409871958828, -0.28047544974833727 -0.8304348019883037" style="stroke: rgb(0, 0, 0); stroke-width: 1; fill: none;"></path></g><g transform="translate(64.5078125 23.78125) rotate(0 66 22.5)"><text x="0" y="32" font-family="Virgil" font-size="36px" fill="#ffffff" text-anchor="start">Founder</text></g><g transform="translate(70.3046875 103.19921875) rotate(0 119 22.5)"><text x="0" y="32" font-family="Virgil" font-size="36px" fill="#ffffff" text-anchor="start">Division Lead</text></g><g transform="translate(148.921875 183.33984375) rotate(0 103.5 22.5)"><text x="0" y="32" font-family="Virgil" font-size="36px" fill="#ffffff" text-anchor="start">Track Lead</text></g><g transform="translate(191.93359375 261.8984375) rotate(0 174.5 22.5)"><text x="0" y="32" font-family="Virgil" font-size="36px" fill="#ffffff" text-anchor="start">GIG Lead/Co-Lead</text></g></svg>